<svg xmlns:dc="http://purl.org/dc/elements/1.1/" xmlns:cc="http://creativecommons.org/ns#" xmlns:rdf="http://www.w3.org/1999/02/22-rdf-syntax-ns#" xmlns:svg="http://www.w3.org/2000/svg" xmlns="http://www.w3.org/2000/svg" xmlns:sodipodi="http://sodipodi.sourceforge.net/DTD/sodipodi-0.dtd" xmlns:inkscape="http://www.inkscape.org/namespaces/inkscape" version="1.1" x="0px" y="0px" viewBox="0 0 100 125"><g transform="translate(0,-952.36218)"><path style="color:#000000;enable-background:accumulate;" d="m 50,976.36216 c -14.3593,0 -26,11.64067 -26,26.00004 0,14.3593 11.6407,26 26,26 14.3595,0 26,-11.6407 26,-26 0,-14.35937 -11.6404,-26.00004 -26,-26.00004 z m 0,7 c 1.6569,0 3,1.34315 3,3 l 0,13 13,0 c 1.6568,0 3,1.34314 3,3.00004 0,1.6568 -1.3432,3 -3,3 l -13,0 0,13 c 0,1.6568 -1.3431,3 -3,3 -1.6568,0 -3,-1.3432 -3,-3 l 0,-13 -13,0 c -1.6568,0 -3,-1.3432 -3,-3 0,-1.6569 1.3432,-3.00004 3,-3.00004 l 13,0 0,-13 c 0,-1.65685 1.3432,-3 3,-3 z" fill="#000000" stroke="none" marker="none" visibility="visible" display="inline" overflow="visible"/></g><text x="0" y="115" fill="#000000" font-size="5px" font-weight="bold" font-family="'Helvetica Neue', Helvetica, Arial-Unicode, Arial, Sans-serif">Created by Kimmi Studio</text><text x="0" y="120" fill="#000000" font-size="5px" font-weight="bold" font-family="'Helvetica Neue', Helvetica, Arial-Unicode, Arial, Sans-serif">from the Noun Project</text></svg>